<?xml version="1.0" encoding="iso-8859-1"?>
<!-- Generator: Adobe Illustrator 19.0.0, SVG Export Plug-In . SVG Version: 6.00 Build 0)  -->
<svg version="1.1" id="Layer_1" xmlns="http://www.w3.org/2000/svg" xmlns:xlink="http://www.w3.org/1999/xlink" x="0px" y="0px"
	 viewBox="0 0 496.158 496.158" style="enable-background:new 0 0 496.158 496.158;" xml:space="preserve">
<path style="fill:#25B7D3;" d="M0,248.085C0,111.063,111.069,0.003,248.075,0.003c137.013,0,248.083,111.061,248.083,248.082
	c0,137.002-111.07,248.07-248.083,248.07C111.069,496.155,0,385.087,0,248.085z"/>
<g>
	<path style="fill:#FFFFFF;" d="M95.274,237.559l141.186-86.691c3.854-2.367,8.926-2.471,12.872-0.262
		c4.019,2.248,6.513,6.504,6.513,11.106v172.7c0,4.596-2.486,8.848-6.492,11.097c-1.899,1.068-4.057,1.63-6.234,1.63
		c-2.338,0-4.628-0.642-6.621-1.855l-141.184-86.01c-3.758-2.289-6.099-6.445-6.105-10.846
		C89.2,244.026,91.524,239.86,95.274,237.559z"/>
	<path style="fill:#FFFFFF;" d="M160.575,221.572h234.327c6.655,0,12.048,5.396,12.048,12.048v28.916
		c0,6.654-5.393,12.047-12.048,12.047H160.575c-6.654,0-12.048-5.393-12.048-12.047V233.62
		C148.527,226.968,153.921,221.572,160.575,221.572z"/>
</g>
<g>
</g>
<g>
</g>
<g>
</g>
<g>
</g>
<g>
</g>
<g>
</g>
<g>
</g>
<g>
</g>
<g>
</g>
<g>
</g>
<g>
</g>
<g>
</g>
<g>
</g>
<g>
</g>
<g>
</g>
</svg>
